<svg xmlns="http://www.w3.org/2000/svg" xml:space="preserve" width="2000" height="582" data-id="lg_BX4E65DMYh7TyUtEUB" data-version="1" viewBox="0 0 2000 582"><g data-padding="20"><g transform="translate(10 7.312)scale(.97487)"><rect width="796" height="581.95" x="217.015" y="-400.715" fill="none" rx="0" ry="0" transform="translate(400.5 400.74)"/><path fill="#fff" d="M752.815 457.31q-27.91 0-51.04-14.08-22.89-14.08-36.34-37.85-13.45-23.76-13.45-52.93l.5-160.69q0-28.66 13.08-51.8 13.07-23.38 36.08-37.59t51.17-14.21q28.67 0 51.05 13.83 22.63 13.83 36.09 37.34 13.45 23.52 13.45 52.43v23.64q0 2.01-2.01 2.01h-57.84q-2.01 0-2.01-2.01v-23.64q0-17.1-11.06-29.42-11.07-12.32-27.67-12.32-18.35 0-28.16 12.57-9.81 12.58-9.81 29.17v160.69q0 18.86 11.07 30.8 11.06 11.95 26.9 11.95 16.6 0 27.67-13.2 11.06-13.2 11.06-29.55v-23.89q0-2.01 2.01-2.01h58.34q2.01 0 2.01 2.01v23.89q0 28.92-13.58 52.81-13.83 23.64-36.46 37.84-22.63 14.21-51.05 14.21m166.2-5.03h-58.34q-2.51 0-2.51-2.51l.5-353.81q0-2.02 2.01-2.02h57.84q2.01 0 2.01 2.02l.51 353.81q0 2.51-2.02 2.51m119.94 5.03q-32.7 0-58.09-14.08-25.15-14.08-39.36-37.6-14.2-23.51-14.2-51.67l.5-163.2q0-28.67 14.33-51.55 14.08-23.14 39.23-37.09 25.15-13.96 57.59-13.96 33.19 0 57.83 13.83 24.65 13.83 38.85 37.09 14.21 23.26 14.21 51.68l.5 163.2q0 27.91-14.08 51.55-14.33 23.64-39.35 37.72t-57.96 14.08m49.03-103.35-.5-163.2q0-18.11-13.46-29.42-13.45-11.32-35.07-11.32-22.13 0-35.46 11.32-13.33 11.31-13.33 29.42v163.2q0 19.11 13.33 30.17 13.33 11.07 35.46 11.07 21.62 0 35.33-11.07 13.7-11.06 13.7-30.17"/><path fill="#fff" d="M1261.725 457.31q-32.7 0-58.09-14.08-25.15-14.08-39.36-37.6-14.21-23.51-14.21-51.67l.51-163.2q0-28.67 14.33-51.55 14.08-23.14 39.23-37.09 25.15-13.96 57.59-13.96 33.19 0 57.83 13.83 24.65 13.83 38.85 37.09 14.21 23.26 14.21 51.68l.5 163.2q0 27.91-14.08 51.55-14.33 23.64-39.35 37.72t-57.96 14.08m49.03-103.35-.5-163.2q0-18.11-13.46-29.42-13.45-11.32-35.07-11.32-22.13 0-35.46 11.32-13.33 11.31-13.33 29.42v163.2q0 19.11 13.33 30.17 13.33 11.07 35.46 11.07 21.62 0 35.33-11.07 13.7-11.06 13.7-30.17"/></g><path fill="transparent" stroke="transparent" d="M602 0h796v582H602z"/></g></svg>