<svg version="1.1" id="Layer_1" xmlns="http://www.w3.org/2000/svg" xmlns:xlink="http://www.w3.org/1999/xlink" x="0px" y="0px"
	 width="100%" viewBox="0 0 1024 1024" enable-background="new 0 0 1024 1024" xml:space="preserve">
<path fill="#000000" opacity="1.000000" stroke="none" 
	d="
M599.000000,1025.000000 
	C399.333344,1025.000000 200.166672,1025.000000 1.000000,1025.000000 
	C1.000000,683.666687 1.000000,342.333344 1.000000,1.000000 
	C342.333344,1.000000 683.666687,1.000000 1025.000000,1.000000 
	C1025.000000,342.333344 1025.000000,683.666687 1025.000000,1025.000000 
	C883.166687,1025.000000 741.333313,1025.000000 599.000000,1025.000000 
M147.833786,114.387283 
	C147.247894,114.284355 146.662018,114.181419 145.413742,113.716354 
	C142.298645,111.589386 141.753448,114.159523 141.081223,116.179733 
	C127.973328,155.572815 114.886497,194.972916 101.830032,234.383072 
	C101.426903,235.599884 101.009109,237.017563 101.249809,238.210068 
	C103.599976,249.853333 106.114090,261.463348 108.533607,273.092804 
	C114.719154,302.823608 120.697144,332.599884 127.235451,362.252747 
	C128.295807,367.061707 126.143761,368.780670 123.185936,370.931427 
	C118.989746,373.982605 114.823990,377.075623 109.793106,380.777832 
	C118.681458,387.729492 126.677376,393.983154 135.035721,400.520294 
	C128.715561,405.694031 122.676712,410.637512 116.181824,415.954285 
	C125.007858,424.116028 133.055649,431.558136 141.313980,439.194916 
	C137.123489,442.277618 133.620590,445.035065 129.931793,447.516083 
	C126.414360,449.881866 126.522964,451.850159 129.336929,454.991028 
	C136.287186,462.748566 142.750732,470.939697 149.571167,478.816925 
	C154.085098,484.030304 158.877991,489.002106 163.271301,494.851807 
	C160.535660,503.508606 157.808487,512.168091 155.062622,520.821655 
	C149.231598,539.197998 143.453644,557.591431 137.538422,575.940613 
	C129.883621,599.686035 122.029259,623.367432 114.447914,647.136108 
	C112.050667,654.651794 110.253365,662.358948 108.286850,670.736938 
	C125.604645,729.799011 142.922440,788.861023 160.282089,848.065796 
	C162.344727,847.932251 164.047424,848.088379 165.600967,847.678772 
	C176.616043,844.774780 187.616745,841.812988 198.591934,838.761414 
	C237.612076,827.912048 276.610687,816.985168 315.639832,806.168518 
	C325.044952,803.561951 334.536316,801.266541 344.620087,799.122437 
	C352.022186,805.190613 359.241058,811.500854 366.866791,817.273560 
	C380.271332,827.420898 393.855469,837.335571 407.495453,847.165894 
	C418.809479,855.319702 430.343597,863.167480 441.716797,871.240173 
	C446.854309,874.886841 451.967377,877.251221 458.764984,877.180298 
	C495.391327,876.798279 532.023865,876.967957 568.654053,877.039856 
	C573.188599,877.048706 576.817993,876.152649 580.798279,873.242981 
	C597.762390,860.841125 615.479309,849.468201 632.432434,837.052063 
	C649.258728,824.729065 665.499084,811.606201 682.807983,798.973022 
	C683.926941,799.180359 685.068848,799.304565 686.161377,799.607361 
	C704.615784,804.722046 723.048157,809.916870 741.517456,814.976929 
	C767.355957,822.056152 793.235535,828.985718 819.068848,836.083679 
	C833.004761,839.912720 846.859497,844.037903 860.801025,847.845947 
	C863.877441,848.686279 866.119324,848.077576 867.140686,843.963135 
	C869.722595,833.562378 873.017395,823.338074 876.043945,813.048218 
	C885.028503,782.501465 894.053833,751.966675 902.998230,721.408203 
	C908.009888,704.285828 912.892883,687.125854 917.973877,669.156799 
	C915.699890,661.247986 913.609985,653.280640 911.115784,645.441833 
	C904.835510,625.704285 898.405029,606.014160 891.975769,586.324219 
	C882.040283,555.895996 872.055542,525.483887 862.621643,494.656830 
	C873.902954,481.449890 885.144470,468.208588 896.489319,455.056458 
	C900.009644,450.975464 900.020142,450.218811 895.513611,447.005188 
	C891.955078,444.467529 888.431763,441.880280 884.740723,439.204834 
	C893.232422,431.317871 901.200562,423.917206 909.852295,415.881653 
	C903.117249,410.456787 896.988220,405.520050 890.662476,400.424866 
	C898.911743,394.094696 907.089233,387.819580 915.996033,380.984894 
	C910.345093,376.639069 905.579651,372.891449 900.717163,369.274109 
	C898.680359,367.758820 897.653748,366.436798 898.560120,363.529297 
	C900.076355,358.665436 900.873962,353.574036 901.914673,348.566071 
	C909.198120,313.516418 916.500732,278.470612 923.677063,243.398987 
	C924.283752,240.434113 924.910156,236.992676 924.012329,234.272766 
	C910.892944,194.531921 897.476868,154.889099 884.277222,115.174484 
	C883.283508,112.184494 881.983154,112.612862 879.287109,113.960228 
	C878.789307,114.000809 878.249207,113.928978 877.799744,114.098099 
	C853.474365,123.252068 829.177734,132.482941 804.831482,141.581024 
	C784.275757,149.262604 763.643677,156.739822 743.081238,164.403717 
	C720.249146,172.913483 697.440979,181.488159 674.653992,190.117966 
	C657.402832,196.651260 640.201172,203.315430 622.047852,210.023315 
	C550.531738,210.015213 479.015594,210.006195 407.499451,210.006989 
	C406.339355,210.007004 405.179260,210.126709 403.348206,209.845306 
	C383.864380,202.542679 364.386017,195.225372 344.895294,187.941208 
	C321.256592,179.106842 297.598816,170.323532 273.964935,161.476318 
	C241.950836,149.492004 209.968536,137.422531 177.935898,125.488014 
	C168.027588,121.796425 157.999710,118.425659 148.018753,114.972580 
	C148.018753,114.972580 148.080154,114.951141 147.833786,114.387283 
z"/>
<path fill="#F6851B" opacity="1.000000" stroke="none" 
	d="
M862.091675,495.064972 
	C872.055542,525.483887 882.040283,555.895996 891.975769,586.324219 
	C898.405029,606.014160 904.835510,625.704285 911.115784,645.441833 
	C913.609985,653.280640 915.699890,661.247986 917.445801,669.573608 
	C866.920105,670.016541 816.922546,670.042725 766.464478,670.057312 
	C746.716736,670.362427 727.430237,670.739136 708.141968,670.973572 
	C696.326965,671.117188 684.505493,670.894287 672.695984,671.193237 
	C670.382019,671.251831 668.109619,672.951416 665.477234,673.949890 
	C663.296387,675.092651 661.310364,675.992310 659.638550,677.295288 
	C639.185364,693.235718 618.734253,709.179626 598.382690,725.249512 
	C591.099854,731.000122 584.086792,737.092224 576.603638,743.045654 
	C575.560669,743.066772 574.864746,743.070740 574.045959,742.744995 
	C567.623291,737.743774 562.299072,733.163086 552.762695,733.638000 
	C527.017822,734.920105 501.167053,734.113708 475.358673,734.024841 
	C472.498352,734.015015 469.645325,733.245483 466.778320,732.922180 
	C466.028961,732.837585 465.053680,732.849487 464.498291,733.252625 
	C459.942444,736.558960 455.461456,739.968384 450.614441,743.272888 
	C449.580963,743.262390 448.890747,743.325562 448.102905,743.031067 
	C446.967896,741.426392 446.112091,739.949036 444.865936,738.966980 
	C426.886169,724.797485 408.882660,710.657715 390.823120,696.590088 
	C380.623657,688.645142 370.311249,680.845276 359.759064,672.726868 
	C357.569458,672.005920 355.675537,671.153076 353.770721,671.128052 
	C322.205627,670.712708 290.639130,670.401245 258.599915,670.052368 
	C208.145096,670.018250 158.163284,669.998352 108.181488,669.978455 
	C110.253365,662.358948 112.050667,654.651794 114.447914,647.136108 
	C122.029259,623.367432 129.883621,599.686035 137.538422,575.940613 
	C143.453644,557.591431 149.231598,539.197998 155.062622,520.821655 
	C157.808487,512.168091 160.535660,503.508606 163.728119,494.355133 
	C165.537796,493.245422 166.839569,492.458038 168.250870,492.044434 
	C222.160324,476.245789 276.076355,460.469452 330.015167,444.771545 
	C331.596161,444.311432 333.431793,444.726349 335.044189,445.096985 
	C334.204224,446.936157 333.607513,448.502289 332.711609,449.872894 
	C324.453094,462.506622 316.141815,475.105865 307.848022,487.716553 
	C300.557556,498.801666 293.269775,509.888580 286.017670,521.297241 
	C286.356323,522.426331 286.658142,523.232849 286.996429,524.409302 
	C287.819550,526.778687 288.440430,528.863464 289.418396,530.764526 
	C299.302155,549.978088 309.308075,569.129028 319.153442,588.362061 
	C330.516357,610.559692 341.741974,632.827576 353.064087,655.046143 
	C353.896759,656.680176 355.027618,658.162292 356.019836,659.715088 
	C356.998505,657.450012 357.056396,655.638428 356.989471,653.831421 
	C356.338593,636.254456 355.593140,618.680298 355.100830,601.098999 
	C355.043823,599.062134 356.359344,596.986877 357.388000,594.966797 
	C359.094269,595.349670 360.451019,595.695129 362.072052,596.322388 
	C365.184448,597.404907 368.040192,598.179688 370.879425,599.010925 
	C384.787109,603.083130 398.670349,607.240417 412.601776,611.229492 
	C423.013977,614.210815 433.486359,616.981995 444.132294,620.050171 
	C444.857056,620.466919 445.381470,620.680176 446.261353,621.021118 
	C447.505585,622.802979 448.865601,624.364319 449.212524,626.125305 
	C454.586212,653.400513 459.823090,680.702698 465.121155,707.992920 
	C465.332458,709.081421 465.836487,710.113098 466.204071,711.171265 
	C466.991882,709.096680 467.008026,707.278198 466.989410,705.460083 
	C466.667236,673.993896 466.511292,642.524719 465.955902,611.062561 
	C465.580261,589.781433 464.715637,568.507385 463.884613,547.237427 
	C463.737518,543.473083 462.679871,539.744263 462.043304,535.555420 
	C462.024750,532.746460 462.005615,530.381165 461.990601,527.548340 
	C461.953979,523.088989 462.075684,519.087830 461.843750,515.107300 
	C460.956085,499.871979 459.933990,484.644562 459.002411,469.411743 
	C458.262970,457.320618 457.601105,445.224792 456.871643,433.133057 
	C455.592957,411.936890 454.362640,390.737366 452.952972,369.549805 
	C452.494354,362.656525 451.539215,355.796295 450.907288,348.519165 
	C450.294281,345.160980 449.585114,342.204590 448.831543,338.867035 
	C434.106812,298.129578 419.400116,257.782867 404.817963,217.391144 
	C404.020660,215.182648 404.261536,212.599380 404.019165,210.190552 
	C405.179260,210.126709 406.339355,210.007004 407.499451,210.006989 
	C479.015594,210.006195 550.531738,210.015213 622.510376,210.387787 
	C622.630981,212.701981 622.579102,214.758835 621.904053,216.585419 
	C610.565552,247.269974 599.104187,277.909180 587.775879,308.597473 
	C584.045410,318.703400 580.614136,328.919769 576.870605,339.388855 
	C575.840759,342.381195 574.986328,345.070282 574.100708,348.241028 
	C573.059692,365.277039 571.953552,381.826233 571.064331,398.387054 
	C569.943604,419.260101 569.014099,440.143341 567.971802,461.020691 
	C567.632690,467.813782 567.203186,474.602417 566.806335,481.392609 
	C565.897034,496.951935 564.982300,512.510925 564.050476,528.490906 
	C564.025330,530.606506 564.019592,532.301208 563.806152,534.351440 
	C563.365662,538.339111 563.113098,541.970154 562.903320,545.603699 
	C561.602905,568.131409 559.645752,590.645874 559.179321,613.191101 
	C558.532471,644.458008 559.004578,675.748230 559.013977,707.028442 
	C559.014343,708.345276 559.179871,709.662109 559.268433,710.978943 
	C560.209595,709.160828 560.626404,707.395508 560.978760,705.617493 
	C566.246765,679.033997 571.462646,652.439880 576.864258,625.883545 
	C577.230896,624.080811 578.978638,622.558960 580.364441,620.843872 
	C581.117432,620.475525 581.590027,620.169922 582.455322,619.899292 
	C609.988403,611.967896 637.128784,604.001587 664.614319,596.021484 
	C666.294800,595.650940 667.630127,595.294189 669.306519,595.132935 
	C670.088806,596.354858 670.939392,597.393372 670.909607,598.405945 
	C670.489807,612.700012 669.892578,626.988770 669.468262,641.282715 
	C669.296753,647.060852 669.439941,652.848328 669.439941,658.631592 
	C675.401367,649.179016 680.491272,639.663879 685.442871,630.077209 
	C702.259644,597.518677 719.046875,564.944763 735.777832,532.341980 
	C737.128723,529.709534 737.965393,526.813171 739.181519,523.747559 
	C739.554260,522.628967 739.786499,521.802307 739.865234,520.670532 
	C724.442932,497.365631 709.139038,474.388977 693.963684,451.327759 
	C692.565979,449.203796 691.987671,446.540588 691.423157,444.039703 
	C692.640869,444.049561 693.497986,444.032379 694.282959,444.261780 
	C748.604980,460.137787 802.925598,476.018646 857.218323,491.994202 
	C858.990540,492.515656 860.473755,494.019196 862.091675,495.064972 
z"/>
<path fill="#763D16" opacity="1.000000" stroke="none" 
	d="
M862.356689,494.860901 
	C860.473755,494.019196 858.990540,492.515656 857.218323,491.994202 
	C802.925598,476.018646 748.604980,460.137787 694.282959,444.261780 
	C693.497986,444.032379 692.640869,444.049561 691.116455,444.132050 
	C689.131592,443.856628 687.577271,443.721191 686.602966,442.898743 
	C649.079529,411.224731 611.609192,379.487885 574.131836,347.759338 
	C574.986328,345.070282 575.840759,342.381195 577.184082,339.255280 
	C578.233398,338.458588 578.817383,338.130463 579.350891,337.734406 
	C678.410828,264.199310 777.468750,190.661591 876.505737,117.095772 
	C877.810181,116.126785 878.848022,114.798744 880.010254,113.638275 
	C881.983154,112.612862 883.283508,112.184494 884.277222,115.174484 
	C897.476868,154.889099 910.892944,194.531921 924.012329,234.272766 
	C924.910156,236.992676 924.283752,240.434113 923.677063,243.398987 
	C916.500732,278.470612 909.198120,313.516418 901.914673,348.566071 
	C900.873962,353.574036 900.076355,358.665436 898.560120,363.529297 
	C897.653748,366.436798 898.680359,367.758820 900.717163,369.274109 
	C905.579651,372.891449 910.345093,376.639069 915.996033,380.984894 
	C907.089233,387.819580 898.911743,394.094696 890.662476,400.424866 
	C896.988220,405.520050 903.117249,410.456787 909.852295,415.881653 
	C901.200562,423.917206 893.232422,431.317871 884.740723,439.204834 
	C888.431763,441.880280 891.955078,444.467529 895.513611,447.005188 
	C900.020142,450.218811 900.009644,450.975464 896.489319,455.056458 
	C885.144470,468.208588 873.902954,481.449890 862.356689,494.860901 
z"/>
<path fill="#763D16" opacity="1.000000" stroke="none" 
	d="
M335.148712,444.733276 
	C333.431793,444.726349 331.596161,444.311432 330.015167,444.771545 
	C276.076355,460.469452 222.160324,476.245789 168.250870,492.044434 
	C166.839569,492.458038 165.537796,493.245422 163.865479,493.970245 
	C158.877991,489.002106 154.085098,484.030304 149.571167,478.816925 
	C142.750732,470.939697 136.287186,462.748566 129.336929,454.991028 
	C126.522964,451.850159 126.414360,449.881866 129.931793,447.516083 
	C133.620590,445.035065 137.123489,442.277618 141.313980,439.194916 
	C133.055649,431.558136 125.007858,424.116028 116.181824,415.954285 
	C122.676712,410.637512 128.715561,405.694031 135.035721,400.520294 
	C126.677376,393.983154 118.681458,387.729492 109.793106,380.777832 
	C114.823990,377.075623 118.989746,373.982605 123.185936,370.931427 
	C126.143761,368.780670 128.295807,367.061707 127.235451,362.252747 
	C120.697144,332.599884 114.719154,302.823608 108.533607,273.092804 
	C106.114090,261.463348 103.599976,249.853333 101.249809,238.210068 
	C101.009109,237.017563 101.426903,235.599884 101.830032,234.383072 
	C114.886497,194.972916 127.973328,155.572815 141.081223,116.179733 
	C141.753448,114.159523 142.298645,111.589386 145.887085,114.176331 
	C146.933685,114.741249 147.506912,114.846199 148.080154,114.951141 
	C148.080154,114.951141 148.018753,114.972580 148.006042,115.289795 
	C149.470108,116.920547 150.856049,118.356438 152.436707,119.530090 
	C233.955276,180.057999 315.482178,240.574677 397.030365,301.062714 
	C414.269043,313.849457 431.591888,326.522675 448.875977,339.248199 
	C449.585114,342.204590 450.294281,345.160980 450.605347,348.652710 
	C449.026520,350.109833 447.812592,350.992310 446.669983,351.959106 
	C411.316345,381.871613 375.979797,411.804352 340.588379,441.672089 
	C339.026428,442.990234 336.973145,443.726166 335.148712,444.733276 
z"/>
<path fill="#E4761B" opacity="1.000000" stroke="none" 
	d="
M766.924927,670.068848 
	C816.922546,670.042725 866.920105,670.016541 917.375732,669.986633 
	C912.892883,687.125854 908.009888,704.285828 902.998230,721.408203 
	C894.053833,751.966675 885.028503,782.501465 876.043945,813.048218 
	C873.017395,823.338074 869.722595,833.562378 867.140686,843.963135 
	C866.119324,848.077576 863.877441,848.686279 860.801025,847.845947 
	C846.859497,844.037903 833.004761,839.912720 819.068848,836.083679 
	C793.235535,828.985718 767.355957,822.056152 741.517456,814.976929 
	C723.048157,809.916870 704.615784,804.722046 686.161377,799.607361 
	C685.068848,799.304565 683.926941,799.180359 682.523926,798.593140 
	C682.507324,797.166138 682.774719,796.118958 683.351501,794.942871 
	C684.751831,793.584839 686.003479,792.463562 686.910034,791.110962 
	C712.749939,752.558472 738.563965,713.988525 764.336609,675.391052 
	C765.421997,673.765625 766.072021,671.849487 766.924927,670.068848 
z"/>
<path fill="#E4761B" opacity="1.000000" stroke="none" 
	d="
M108.234169,670.357666 
	C158.163284,669.998352 208.145096,670.018250 258.656982,670.393188 
	C260.401672,672.912109 261.479980,675.166748 262.851288,677.226196 
	C285.991211,711.976196 309.127319,746.728882 332.382568,781.401672 
	C335.584290,786.175293 339.417175,790.525513 342.938660,795.404175 
	C343.275635,796.767029 343.631836,797.797607 343.988037,798.828125 
	C334.536316,801.266541 325.044952,803.561951 315.639832,806.168518 
	C276.610687,816.985168 237.612076,827.912048 198.591934,838.761414 
	C187.616745,841.812988 176.616043,844.774780 165.600967,847.678772 
	C164.047424,848.088379 162.344727,847.932251 160.282089,848.065796 
	C142.922440,788.861023 125.604645,729.799011 108.234169,670.357666 
z"/>
<path fill="#E4761B" opacity="1.000000" stroke="none" 
	d="
M448.831543,338.867035 
	C431.591888,326.522675 414.269043,313.849457 397.030365,301.062714 
	C315.482178,240.574677 233.955276,180.057999 152.436707,119.530090 
	C150.856049,118.356438 149.470108,116.920547 148.009949,115.257507 
	C157.999710,118.425659 168.027588,121.796425 177.935898,125.488014 
	C209.968536,137.422531 241.950836,149.492004 273.964935,161.476318 
	C297.598816,170.323532 321.256592,179.106842 344.895294,187.941208 
	C364.386017,195.225372 383.864380,202.542679 403.683716,210.017929 
	C404.261536,212.599380 404.020660,215.182648 404.817963,217.391144 
	C419.400116,257.782867 434.106812,298.129578 448.831543,338.867035 
z"/>
<path fill="#E2761B" opacity="1.000000" stroke="none" 
	d="
M879.648682,113.799255 
	C878.848022,114.798744 877.810181,116.126785 876.505737,117.095772 
	C777.468750,190.661591 678.410828,264.199310 579.350891,337.734406 
	C578.817383,338.130463 578.233398,338.458588 577.359497,338.952026 
	C580.614136,328.919769 584.045410,318.703400 587.775879,308.597473 
	C599.104187,277.909180 610.565552,247.269974 621.904053,216.585419 
	C622.579102,214.758835 622.630981,212.701981 622.975159,210.336792 
	C640.201172,203.315430 657.402832,196.651260 674.653992,190.117966 
	C697.440979,181.488159 720.249146,172.913483 743.081238,164.403717 
	C763.643677,156.739822 784.275757,149.262604 804.831482,141.581024 
	C829.177734,132.482941 853.474365,123.252068 877.799744,114.098099 
	C878.249207,113.928978 878.789307,114.000809 879.648682,113.799255 
z"/>
<path fill="#C0AD9E" opacity="1.000000" stroke="none" 
	d="
M344.304077,798.975281 
	C343.631836,797.797607 343.275635,796.767029 343.302277,795.329651 
	C344.421356,794.931091 345.157623,794.939392 346.211731,795.110107 
	C378.583099,810.478821 410.636627,825.685120 443.046844,841.060608 
	C443.046844,831.642578 443.046844,823.271729 443.424622,814.955200 
	C445.379395,814.297913 447.429901,813.989197 448.443268,812.798096 
	C451.305023,809.434326 454.705048,808.652283 458.965332,808.668823 
	C494.690582,808.807800 530.416870,808.808777 566.142090,808.672241 
	C570.692688,808.654846 574.502014,809.281433 577.737122,812.846558 
	C578.856628,814.080200 581.170776,814.229614 582.951538,815.349365 
	C582.963806,823.950562 582.963806,832.076599 582.963806,841.197021 
	C615.753784,825.586853 647.929749,810.268982 680.473816,794.926270 
	C681.575317,794.958252 682.308655,795.015015 683.042053,795.071777 
	C682.774719,796.118958 682.507324,797.166138 682.118164,798.523682 
	C665.499084,811.606201 649.258728,824.729065 632.432434,837.052063 
	C615.479309,849.468201 597.762390,860.841125 580.798279,873.242981 
	C576.817993,876.152649 573.188599,877.048706 568.654053,877.039856 
	C532.023865,876.967957 495.391327,876.798279 458.764984,877.180298 
	C451.967377,877.251221 446.854309,874.886841 441.716797,871.240173 
	C430.343597,863.167480 418.809479,855.319702 407.495453,847.165894 
	C393.855469,837.335571 380.271332,827.420898 366.866791,817.273560 
	C359.241058,811.500854 352.022186,805.190613 344.304077,798.975281 
z"/>
<path fill="#E4761B" opacity="1.000000" stroke="none" 
	d="
M147.956970,114.669220 
	C147.506912,114.846199 146.933685,114.741249 146.218292,114.357391 
	C146.662018,114.181419 147.247894,114.284355 147.956970,114.669220 
z"/>
<path fill="#E4761B" opacity="1.000000" stroke="none" 
	d="
M335.044189,445.096985 
	C336.973145,443.726166 339.026428,442.990234 340.588379,441.672089 
	C375.979797,411.804352 411.316345,381.871613 446.669983,351.959106 
	C447.812592,350.992310 449.026520,350.109833 450.509216,349.054504 
	C451.539215,355.796295 452.494354,362.656525 452.952972,369.549805 
	C454.362640,390.737366 455.592957,411.936890 456.871643,433.133057 
	C457.601105,445.224792 458.262970,457.320618 459.002411,469.411743 
	C459.933990,484.644562 460.956085,499.871979 461.843750,515.107300 
	C462.075684,519.087830 461.953979,523.088989 461.523926,527.546387 
	C439.344147,527.029968 417.635529,526.037964 395.925934,525.069153 
	C380.512085,524.381287 365.100037,523.638855 349.681519,523.075073 
	C328.450745,522.298767 307.214630,521.667908 285.980804,520.974731 
	C293.269775,509.888580 300.557556,498.801666 307.848022,487.716553 
	C316.141815,475.105865 324.453094,462.506622 332.711609,449.872894 
	C333.607513,448.502289 334.204224,446.936157 335.044189,445.096985 
z"/>
<path fill="#E4761B" opacity="1.000000" stroke="none" 
	d="
M574.100647,348.241028 
	C611.609192,379.487885 649.079529,411.224731 686.602966,442.898743 
	C687.577271,443.721191 689.131592,443.856628 690.722168,444.220093 
	C691.987671,446.540588 692.565979,449.203796 693.963684,451.327759 
	C709.139038,474.388977 724.442932,497.365631 739.394653,520.672852 
	C723.169800,521.640747 707.260620,522.269287 691.354675,522.969299 
	C669.320068,523.939087 647.291321,525.049683 625.253601,525.937805 
	C604.863464,526.759521 584.464783,527.367798 564.069824,528.070068 
	C564.982300,512.510925 565.897034,496.951935 566.806335,481.392609 
	C567.203186,474.602417 567.632690,467.813782 567.971802,461.020691 
	C569.014099,440.143341 569.943604,419.260101 571.064331,398.387054 
	C571.953552,381.826233 573.059692,365.277039 574.100647,348.241028 
z"/>
<path fill="#161616" opacity="1.000000" stroke="none" 
	d="
M582.939270,814.874207 
	C581.170776,814.229614 578.856628,814.080200 577.737122,812.846558 
	C574.502014,809.281433 570.692688,808.654846 566.142090,808.672241 
	C530.416870,808.808777 494.690582,808.807800 458.965332,808.668823 
	C454.705048,808.652283 451.305023,809.434326 448.443268,812.798096 
	C447.429901,813.989197 445.379395,814.297913 443.404480,814.527100 
	C443.686951,807.022034 444.320343,799.994507 445.061737,792.978271 
	C445.714355,786.802246 446.474274,780.637329 447.210693,774.470337 
	C448.449707,764.094482 449.707733,753.721008 450.957733,743.346497 
	C455.461456,739.968384 459.942444,736.558960 464.498291,733.252625 
	C465.053680,732.849487 466.028961,732.837585 466.778320,732.922180 
	C469.645325,733.245483 472.498352,734.015015 475.358673,734.024841 
	C501.167053,734.113708 527.017822,734.920105 552.762695,733.638000 
	C562.299072,733.163086 567.623291,737.743774 573.979126,743.160400 
	C575.387756,753.934875 576.822571,763.954224 578.073242,773.996399 
	C579.769104,787.613098 581.323914,801.247437 582.939270,814.874207 
z"/>
<path fill="#CD6116" opacity="1.000000" stroke="none" 
	d="
M286.017670,521.297241 
	C307.214630,521.667908 328.450745,522.298767 349.681519,523.075073 
	C365.100037,523.638855 380.512085,524.381287 395.925934,525.069153 
	C417.635529,526.037964 439.344147,527.029968 461.519806,528.014038 
	C462.005615,530.381165 462.024750,532.746460 461.829163,535.869446 
	C456.378204,564.715942 451.142029,592.804688 445.905884,620.893433 
	C445.381470,620.680176 444.857056,620.466919 443.983826,619.742249 
	C435.783508,602.627014 427.932007,586.023193 419.970428,569.186646 
	C414.364288,571.710754 409.501862,573.845215 404.685455,576.078918 
	C390.383179,582.711853 376.099030,589.383850 361.807800,596.040588 
	C360.451019,595.695129 359.094269,595.349670 357.199188,594.698242 
	C355.175262,592.828979 353.705017,591.250671 352.201599,589.704712 
	C340.750885,577.929321 329.382019,566.072632 317.812103,554.415527 
	C307.646149,544.172913 297.252808,534.156006 286.959930,524.039368 
	C286.658142,523.232849 286.356323,522.426331 286.017670,521.297241 
z"/>
<path fill="#CD6116" opacity="1.000000" stroke="none" 
	d="
M564.050476,528.490845 
	C584.464783,527.367798 604.863464,526.759521 625.253601,525.937805 
	C647.291321,525.049683 669.320068,523.939087 691.354675,522.969299 
	C707.260620,522.269287 723.169800,521.640747 739.548096,520.978027 
	C739.786499,521.802307 739.554260,522.628967 738.891235,523.911621 
	C727.311890,535.732239 716.180969,547.114258 705.010010,558.456848 
	C693.014771,570.636353 680.981873,582.778870 668.965454,594.937500 
	C667.630127,595.294189 666.294800,595.650940 664.414429,595.717468 
	C644.886536,586.712585 625.903564,577.997986 606.416321,569.051819 
	C598.110535,586.381287 590.086548,603.122803 582.062622,619.864319 
	C581.590027,620.169922 581.117432,620.475525 580.330017,620.441162 
	C576.853455,602.453796 573.757751,584.794250 570.506104,567.163391 
	C568.463013,556.085327 566.185974,545.050293 564.013916,533.995972 
	C564.019592,532.301208 564.025330,530.606506 564.050476,528.490845 
z"/>
<path fill="#CD6116" opacity="1.000000" stroke="none" 
	d="
M345.893860,794.947693 
	C345.157623,794.939392 344.421356,794.931091 343.321503,794.997314 
	C339.417175,790.525513 335.584290,786.175293 332.382568,781.401672 
	C309.127319,746.728882 285.991211,711.976196 262.851288,677.226196 
	C261.479980,675.166748 260.401672,672.912109 259.130005,670.407471 
	C290.639130,670.401245 322.205627,670.712708 353.770721,671.128052 
	C355.675537,671.153076 357.569458,672.005920 359.747742,673.176392 
	C358.369690,688.524841 356.744629,703.174133 355.047943,717.815186 
	C352.130432,742.991333 349.168274,768.162231 346.185364,793.607239 
	C346.061859,794.235352 345.977875,794.591492 345.893860,794.947693 
z"/>
<path fill="#CD6116" opacity="1.000000" stroke="none" 
	d="
M683.351501,794.942810 
	C682.308655,795.015015 681.575317,794.958252 680.411560,794.652832 
	C679.918701,794.035339 679.856140,793.666321 679.755920,792.875061 
	C679.150635,788.011169 678.540894,783.574463 678.022583,779.127136 
	C675.854248,760.519470 673.717590,741.908142 671.560913,723.299072 
	C669.652405,706.830139 667.732727,690.362427 665.818054,673.894165 
	C668.109619,672.951416 670.382019,671.251831 672.695984,671.193237 
	C684.505493,670.894287 696.326965,671.117188 708.141968,670.973572 
	C727.430237,670.739136 746.716736,670.362427 766.464478,670.057312 
	C766.072021,671.849487 765.421997,673.765625 764.336609,675.391052 
	C738.563965,713.988525 712.749939,752.558472 686.910034,791.110962 
	C686.003479,792.463562 684.751831,793.584839 683.351501,794.942810 
z"/>
<path fill="#E4761B" opacity="1.000000" stroke="none" 
	d="
M665.477234,673.949890 
	C667.732727,690.362427 669.652405,706.830139 671.560913,723.299072 
	C673.717590,741.908142 675.854248,760.519470 678.022583,779.127136 
	C678.540894,783.574463 679.150635,788.011169 679.419312,792.765137 
	C664.607971,786.015137 650.079346,778.985901 635.587219,771.882263 
	C616.026855,762.294434 596.494751,752.649170 576.950562,743.028503 
	C584.086792,737.092224 591.099854,731.000122 598.382690,725.249512 
	C618.734253,709.179626 639.185364,693.235718 659.638550,677.295288 
	C661.310364,675.992310 663.296387,675.092651 665.477234,673.949890 
z"/>
<path fill="#E4761B" opacity="1.000000" stroke="none" 
	d="
M346.224884,793.335327 
	C349.168274,768.162231 352.130432,742.991333 355.047943,717.815186 
	C356.744629,703.174133 358.369690,688.524841 360.038330,673.429688 
	C370.311249,680.845276 380.623657,688.645142 390.823120,696.590088 
	C408.882660,710.657715 426.886169,724.797485 444.865936,738.966980 
	C446.112091,739.949036 446.967896,741.426392 447.835815,743.246643 
	C413.852509,760.324951 380.038696,776.830139 346.224884,793.335327 
z"/>
<path fill="#D7C1B2" opacity="1.000000" stroke="none" 
	d="
M576.603638,743.045654 
	C596.494751,752.649170 616.026855,762.294434 635.587219,771.882263 
	C650.079346,778.985901 664.607971,786.015137 679.456970,793.187378 
	C679.856140,793.666321 679.918701,794.035339 680.043457,794.677734 
	C647.929749,810.268982 615.753784,825.586853 582.963806,841.197021 
	C582.963806,832.076599 582.963806,823.950562 582.951538,815.349365 
	C581.323914,801.247437 579.769104,787.613098 578.073242,773.996399 
	C576.822571,763.954224 575.387756,753.934875 574.101929,743.489990 
	C574.864746,743.070740 575.560669,743.066772 576.603638,743.045654 
z"/>
<path fill="#D7C1B2" opacity="1.000000" stroke="none" 
	d="
M346.185364,793.607239 
	C380.038696,776.830139 413.852509,760.324951 447.933441,743.604248 
	C448.890747,743.325562 449.580963,743.262390 450.614441,743.272888 
	C449.707733,753.721008 448.449707,764.094482 447.210693,774.470337 
	C446.474274,780.637329 445.714355,786.802246 445.061737,792.978271 
	C444.320343,799.994507 443.686951,807.022034 443.026733,814.472778 
	C443.046844,823.271729 443.046844,831.642578 443.046844,841.060608 
	C410.636627,825.685120 378.583099,810.478821 346.211731,795.110107 
	C345.977875,794.591492 346.061859,794.235352 346.185364,793.607239 
z"/>
<path fill="#E4751F" opacity="1.000000" stroke="none" 
	d="
M286.996429,524.409302 
	C297.252808,534.156006 307.646149,544.172913 317.812103,554.415527 
	C329.382019,566.072632 340.750885,577.929321 352.201599,589.704712 
	C353.705017,591.250671 355.175262,592.828979 356.849670,594.660828 
	C356.359344,596.986877 355.043823,599.062134 355.100830,601.098999 
	C355.593140,618.680298 356.338593,636.254456 356.989471,653.831421 
	C357.056396,655.638428 356.998505,657.450012 356.019836,659.715088 
	C355.027618,658.162292 353.896759,656.680176 353.064087,655.046143 
	C341.741974,632.827576 330.516357,610.559692 319.153442,588.362061 
	C309.308075,569.129028 299.302155,549.978088 289.418396,530.764526 
	C288.440430,528.863464 287.819550,526.778687 286.996429,524.409302 
z"/>
<path fill="#E4751F" opacity="1.000000" stroke="none" 
	d="
M669.306519,595.132935 
	C680.981873,582.778870 693.014771,570.636353 705.010010,558.456848 
	C716.180969,547.114258 727.311890,535.732239 738.750732,524.203552 
	C737.965393,526.813171 737.128723,529.709534 735.777832,532.341980 
	C719.046875,564.944763 702.259644,597.518677 685.442871,630.077209 
	C680.491272,639.663879 675.401367,649.179016 669.439941,658.631592 
	C669.439941,652.848328 669.296753,647.060852 669.468262,641.282715 
	C669.892578,626.988770 670.489807,612.700012 670.909607,598.405945 
	C670.939392,597.393372 670.088806,596.354858 669.306519,595.132935 
z"/>
<path fill="#E4751F" opacity="1.000000" stroke="none" 
	d="
M563.806152,534.351440 
	C566.185974,545.050293 568.463013,556.085327 570.506104,567.163391 
	C573.757751,584.794250 576.853455,602.453796 580.049622,620.503845 
	C578.978638,622.558960 577.230896,624.080811 576.864258,625.883545 
	C571.462646,652.439880 566.246765,679.033997 560.978760,705.617493 
	C560.626404,707.395508 560.209595,709.160828 559.268433,710.978943 
	C559.179871,709.662109 559.014343,708.345276 559.013977,707.028442 
	C559.004578,675.748230 558.532471,644.458008 559.179321,613.191101 
	C559.645752,590.645874 561.602905,568.131409 562.903320,545.603699 
	C563.113098,541.970154 563.365662,538.339111 563.806152,534.351440 
z"/>
<path fill="#E4751F" opacity="1.000000" stroke="none" 
	d="
M446.261353,621.021118 
	C451.142029,592.804688 456.378204,564.715942 461.828552,536.313110 
	C462.679871,539.744263 463.737518,543.473083 463.884613,547.237427 
	C464.715637,568.507385 465.580261,589.781433 465.955902,611.062561 
	C466.511292,642.524719 466.667236,673.993896 466.989410,705.460083 
	C467.008026,707.278198 466.991882,709.096680 466.204071,711.171265 
	C465.836487,710.113098 465.332458,709.081421 465.121155,707.992920 
	C459.823090,680.702698 454.586212,653.400513 449.212524,626.125305 
	C448.865601,624.364319 447.505585,622.802979 446.261353,621.021118 
z"/>
<path fill="#253546" opacity="1.000000" stroke="none" 
	d="
M582.455322,619.899292 
	C590.086548,603.122803 598.110535,586.381287 606.416321,569.051819 
	C625.903564,577.997986 644.886536,586.712585 664.069336,595.731262 
	C637.128784,604.001587 609.988403,611.967896 582.455322,619.899292 
z"/>
<path fill="#253546" opacity="1.000000" stroke="none" 
	d="
M362.072052,596.322388 
	C376.099030,589.383850 390.383179,582.711853 404.685455,576.078918 
	C409.501862,573.845215 414.364288,571.710754 419.970428,569.186646 
	C427.932007,586.023193 435.783508,602.627014 443.783447,619.538818 
	C433.486359,616.981995 423.013977,614.210815 412.601776,611.229492 
	C398.670349,607.240417 384.787109,603.083130 370.879425,599.010925 
	C368.040192,598.179688 365.184448,597.404907 362.072052,596.322388 
z"/>
</svg>